<?xml version="1.0" standalone="no"?><!DOCTYPE svg PUBLIC "-//W3C//DTD SVG 1.1//EN" "http://www.w3.org/Graphics/SVG/1.1/DTD/svg11.dtd"><svg t="1656921013594" class="icon" viewBox="0 0 1024 1024" version="1.1" xmlns="http://www.w3.org/2000/svg" p-id="15513" xmlns:xlink="http://www.w3.org/1999/xlink" width="200" height="200"><defs><style type="text/css">@font-face { font-family: feedback-iconfont; src: url("//at.alicdn.com/t/font_1031158_u69w8yhxdu.woff2?t=1630033759944") format("woff2"), url("//at.alicdn.com/t/font_1031158_u69w8yhxdu.woff?t=1630033759944") format("woff"), url("//at.alicdn.com/t/font_1031158_u69w8yhxdu.ttf?t=1630033759944") format("truetype"); }
</style></defs><path d="M971.135596 227.081978l-43.896198 43.89519L752.129413 95.712947l43.735912-43.740953c48.392272-48.39328 126.87699-48.39328 175.27027 0C1019.527868 100.210029 1019.527868 178.689706 971.135596 227.081978L971.135596 227.081978 971.135596 227.081978zM839.608295 358.45605 620.601104 577.148717 315.359013 709.759713l129.978877-307.72098 219.159412-218.847913L839.608295 358.45605 839.608295 358.45605 839.608295 358.45605zM378.17703 142.396509l-188.452033 0c-34.741748 0-62.811968 28.227481-62.811968 62.971246L126.913029 834.927993c0 34.741748 28.07022 62.977294 62.811968 62.977294l628.322305 0c34.743764 0 62.818016-28.234538 62.818016-62.977294L880.865318 583.19523c0-34.741748 28.074252-62.971246 62.818016-62.971246 34.741748 0 62.817008 28.22849 62.817008 62.971246l0 314.862278c0 69.485513-56.30375 125.9435-125.634017 125.9435L126.912021 1024.001008c-69.331275 0-125.634017-56.30375-125.634017-125.9435L1.278004 142.396509c0-69.485513 56.30375-125.9435 125.634017-125.9435l251.264001 0c34.743764 0 62.818016 28.22849 62.818016 62.972254C440.995046 114.322257 412.919786 142.396509 378.17703 142.396509L378.17703 142.396509 378.17703 142.396509zM378.17703 142.396509" p-id="15514"></path></svg>